<svg width="160" height="141" viewBox="0 0 160 141" fill="none" xmlns="http://www.w3.org/2000/svg">
<path fill-rule="evenodd" clip-rule="evenodd" d="M15 0C6.71573 0 0 6.71573 0 15V70L0.000141144 70.0664C0.000286102 70.0992 0.000530243 70.132 0.00088501 70.1647C0.000293732 70.2765 0 70.3882 0 70.5C0 109.436 35.8172 141 80 141C124.183 141 160 109.436 160 70.5L160 70.4056C160 70.3253 160 70.245 159.999 70.1647C160 70.1099 160 70.055 160 70V15C160 6.71573 153.284 0 145 0H80H15ZM80.6825 24L126 69.3175V97.3697L66.6564 38.0261L80.6825 24ZM84.2092 69.0013L73.8146 58.6068L73.816 58.6054L59.79 44.5793L45.6575 58.8152L35 69.4727V97.3697L59.6577 72.8154L84.2092 97.3697V69.0013Z" fill="white"/>
</svg>
